<svg width="512" height="512" version="1.1" xmlns="http://www.w3.org/2000/svg" desc="Created with imagetracer.js version 1.2.6" ><path fill="rgb(0,0,0)" stroke="rgb(0,0,0)" stroke-width="1" opacity="0" d="M 0 0 L 512 0 L 512 512 L 0 512 L 0 0 Z M 117 19 L 113 24 L 113 54 L 59 54 L 54 59 L 54 113 L 24 113 L 19 117 Q 18 123 20 126 L 25 128 L 54 128 L 54 181 L 23 181 Q 17 183 19 192 L 25 196 L 54 196 L 54 249 L 23 249 L 19 253 Q 17 261 23 263 L 54 263 L 54 316 L 25 316 L 19 321 Q 17 329 23 331 L 54 331 L 54 384 L 25 384 L 22 385 Q 18 388 19 396 L 24 399 L 54 399 L 54 454 L 59 458 L 113 458 L 113 489 L 117 493 Q 123 494 126 492 L 128 488 L 128 458 L 181 458 L 181 490 Q 183 495 192 493 L 196 488 L 196 458 L 249 458 L 249 490 L 253 493 Q 261 495 263 490 L 263 458 L 316 458 L 316 488 L 321 493 Q 329 495 331 490 L 331 458 L 384 458 L 384 488 L 385 491 Q 388 494 396 493 L 399 489 L 399 458 L 454 458 L 458 454 L 458 399 L 489 399 L 493 396 L 492 387 L 488 384 L 458 384 L 458 331 L 490 331 Q 495 329 493 321 L 488 316 L 458 316 L 458 263 L 490 263 L 493 260 Q 495 251 490 249 L 458 249 L 458 196 L 488 196 L 493 192 Q 495 183 490 181 L 458 181 L 458 128 L 488 128 L 492 126 Q 494 123 493 117 L 489 113 L 458 113 L 458 59 L 454 54 L 399 54 L 399 24 L 396 19 L 387 20 L 384 25 L 384 54 L 331 54 L 331 23 Q 329 17 321 19 L 316 25 L 316 54 L 263 54 L 263 23 L 260 19 Q 251 17 249 23 L 249 54 L 196 54 L 196 25 L 192 19 Q 183 17 181 23 L 181 54 L 128 54 L 128 25 L 126 20 Q 123 18 117 19 Z " /><path fill="rgb(0,0,0)" stroke="rgb(0,0,0)" stroke-width="1" opacity="0" d="M 69 69 L 443 69 L 443 443 L 69 443 L 69 69 Z M 95 90 L 90 95 L 90 137 L 96 141 L 102 140 L 105 136 L 105 105 L 136 105 L 138 104 L 141 100 L 140 94 L 137 90 L 95 90 Z M 376 90 L 371 96 L 372 102 L 377 105 L 407 105 L 407 136 L 408 138 L 413 141 L 419 140 L 422 137 L 422 95 L 418 90 L 376 90 Z M 166 210 Q 154 213 147 219 Q 133 229 129 249 L 130 268 Q 133 279 140 287 Q 150 298 169 302 Q 192 303 204 293 L 209 287 L 198 276 Q 192 284 182 286 Q 164 288 157 279 Q 148 272 146 260 L 147 248 L 153 237 Q 159 229 170 226 Q 181 225 188 228 L 198 236 L 204 231 L 209 225 Q 201 215 189 211 L 185 210 L 166 210 Z M 221 212 L 221 300 L 238 300 L 238 271 L 265 271 L 276 268 L 285 262 L 291 253 L 293 245 Q 293 232 288 225 Q 281 215 269 212 L 221 212 Z M 305 212 L 305 273 L 312 288 Q 320 299 337 302 L 352 302 Q 362 300 370 294 Q 380 286 383 271 L 383 213 L 383 212 L 366 212 L 366 268 L 361 279 L 355 284 L 345 287 L 338 286 L 332 283 Q 324 278 322 269 L 322 213 L 322 212 L 305 212 Z M 96 371 L 94 372 L 90 376 L 90 418 L 95 422 L 137 422 L 141 417 L 140 411 L 136 407 L 105 407 L 105 377 L 104 375 Q 102 370 96 371 Z M 413 371 L 411 372 L 407 377 L 407 407 L 377 407 L 375 408 L 371 413 L 372 419 L 376 422 L 418 422 L 422 418 L 422 376 Q 420 370 413 371 Z " /><path fill="rgb(0,0,0)" stroke="rgb(0,0,0)" stroke-width="1" opacity="0" d="M 238 227 L 260.5 227 L 269.5 230 L 274 234.5 Q 276.5 238 275 245.5 L 268.5 253 L 262.5 255 L 238 255 L 238 227 Z " /><path fill="rgb(255,255,255)" stroke="rgb(255,255,255)" stroke-width="1" opacity="0.48627450980392156" d="M 116.5 19 L 119 19.5 L 115 21.5 L 114 23.5 L 114 53.5 L 112.5 55 L 58.5 55 L 55 58.5 L 55 112.5 L 53.5 114 L 23.5 114 L 20 116.5 L 19.5 119 L 19 116.5 L 23.5 113 L 54 113 L 54 58.5 L 58.5 54 L 113 54 L 113 23.5 L 116.5 19 Z " /><path fill="rgb(255,255,255)" stroke="rgb(255,255,255)" stroke-width="1" opacity="0.48627450980392156" d="M 122.5 19 L 126 20 L 127 22.5 L 123.5 20 L 122.5 19 Z " /><path fill="rgb(255,255,255)" stroke="rgb(255,255,255)" stroke-width="1" opacity="0.48627450980392156" d="M 184.5 19 L 186 19.5 L 182 22.5 L 181.5 25 L 181 22.5 L 184.5 19 Z " /><path fill="rgb(255,255,255)" stroke="rgb(255,255,255)" stroke-width="1" opacity="0.48627450980392156" d="M 190.5 19 L 195 22.5 L 196 24.5 L 196 54 L 249 54.5 L 195 55 L 195 24.5 L 191.5 20 L 190.5 19 Z " /><path fill="rgb(255,255,255)" stroke="rgb(255,255,255)" stroke-width="1" opacity="0.48627450980392156" d="M 252.5 19 L 254 19.5 L 250 22.5 L 249.5 24 L 249 22.5 L 252.5 19 Z " /><path fill="rgb(255,255,255)" stroke="rgb(255,255,255)" stroke-width="1" opacity="0.48627450980392156" d="M 258.5 19 L 263 22.5 L 262.5 24 L 259.5 20 L 258.5 19 Z " /><path fill="rgb(255,255,255)" stroke="rgb(255,255,255)" stroke-width="1" opacity="0.48627450980392156" d="M 320.5 19 L 322 19.5 L 318 22.5 L 317 24.5 L 317 55 L 263 54.5 L 316 54 L 316 24.5 L 320.5 19 Z " /><path fill="rgb(255,255,255)" stroke="rgb(255,255,255)" stroke-width="1" opacity="0.48627450980392156" d="M 326.5 19 L 331 22.5 L 330.5 25 L 327.5 20 L 326.5 19 Z " /><path fill="rgb(255,255,255)" stroke="rgb(255,255,255)" stroke-width="1" opacity="0.48627450980392156" d="M 388.5 19 L 390 19.5 L 385.5 23 L 385 21.5 L 388.5 19 Z " /><path fill="rgb(255,255,255)" stroke="rgb(255,255,255)" stroke-width="1" opacity="0.48627450980392156" d="M 393.5 19 Q 397.5 18.5 398 21.5 L 399 23.5 L 399 54 L 453.5 54 L 458 58.5 L 458 113 L 488.5 113 L 493 116.5 L 492.5 119 L 490.5 115 L 488.5 114 L 458.5 114 L 457 112.5 L 457 58.5 L 453.5 55 L 399.5 55 L 398 53.5 L 398 23.5 L 395.5 20 Q 392.5 20.5 393.5 19 Z " /><path fill="rgb(255,255,255)" stroke="rgb(255,255,255)" stroke-width="1" opacity="0.48627450980392156" d="M 127.5 24 L 128 54 L 181 54.5 L 127 55 L 127.5 24 Z " /><path fill="rgb(255,255,255)" stroke="rgb(255,255,255)" stroke-width="1" opacity="0.48627450980392156" d="M 384.5 24 L 385 55 L 331 54.5 L 384 54 L 384.5 24 Z " /><path fill="rgb(255,255,255)" stroke="rgb(255,255,255)" stroke-width="1" opacity="0.48627450980392156" d="M 68 68 L 444 68 L 444 444 L 68 444 L 68 68 Z M 69 69 L 69 443 L 443 443 L 443 69 L 69 69 Z " /><path fill="rgb(255,255,255)" stroke="rgb(255,255,255)" stroke-width="1" opacity="0.48627450980392156" d="M 94.5 90 L 136.5 90 L 140 93.5 L 141 99.5 L 137.5 104 L 135.5 105 L 105 105 L 105 135.5 L 101.5 140 L 95.5 141 L 90 136.5 L 90 94.5 L 94.5 90 Z M 95 91 L 91 95 L 91 137 L 96 140 L 102 139 L 104 136 L 104 104 L 136 104 L 138 103 L 140 100 L 139 94 L 137 91 L 95 91 Z " /><path fill="rgb(255,255,255)" stroke="rgb(255,255,255)" stroke-width="1" opacity="0.48627450980392156" d="M 375.5 90 L 417.5 90 L 422 94.5 L 422 136.5 L 418.5 140 L 412.5 141 L 408 137.5 L 407 135.5 L 407 105 L 376.5 105 L 372 101.5 L 371 95.5 L 372 95.5 Q 371.2 101.3 374.5 103 L 376.5 104 L 408 104 L 408 135.5 L 410.5 139 L 416.5 140 L 421 136.5 L 421 94.5 L 417.5 91 L 375.5 91 L 372.5 94 L 375.5 90 Z " /><path fill="rgb(255,255,255)" stroke="rgb(255,255,255)" stroke-width="1" opacity="0.48627450980392156" d="M 19.5 122 L 23 126.5 L 21.5 126 Q 19.3 126.8 20 124.5 L 19.5 122 Z " /><path fill="rgb(255,255,255)" stroke="rgb(255,255,255)" stroke-width="1" opacity="0.48627450980392156" d="M 492.5 122 L 493 123.5 L 492 126 L 489.5 127 L 492 123.5 L 492.5 122 Z " /><path fill="rgb(255,255,255)" stroke="rgb(255,255,255)" stroke-width="1" opacity="0.48627450980392156" d="M 24.5 127 L 55 127 L 55 180.5 L 54 180.5 L 54 128 L 24.5 128 L 24.5 127 Z " /><path fill="rgb(255,255,255)" stroke="rgb(255,255,255)" stroke-width="1" opacity="0.48627450980392156" d="M 457 127 L 488 127.5 L 458 128 L 457.5 181 L 457 127 Z " /><path fill="rgb(255,255,255)" stroke="rgb(255,255,255)" stroke-width="1" opacity="0.48627450980392156" d="M 22.5 181 L 25 181.5 L 20 184.5 L 19.5 186 L 19 184.5 L 22.5 181 Z " /><path fill="rgb(255,255,255)" stroke="rgb(255,255,255)" stroke-width="1" opacity="0.48627450980392156" d="M 487.5 181 Q 492.5 180.5 493 184.5 L 492.5 186 L 489.5 182 Q 486.5 182.5 487.5 181 Z " /><path fill="rgb(255,255,255)" stroke="rgb(255,255,255)" stroke-width="1" opacity="0.48627450980392156" d="M 19.5 190 L 22.5 194 L 24.5 195 L 55 195 L 54.5 249 L 54 196 L 24.5 196 L 19 191.5 L 19.5 190 Z " /><path fill="rgb(255,255,255)" stroke="rgb(255,255,255)" stroke-width="1" opacity="0.48627450980392156" d="M 492.5 190 L 493 191.5 L 487.5 196 L 458 196 L 457.5 249 L 457 195 L 487.5 195 L 492 191.5 L 492.5 190 Z " /><path fill="rgb(255,255,255)" stroke="rgb(255,255,255)" stroke-width="1" opacity="0.48627450980392156" d="M 165.5 210 L 170 210.5 L 159.5 213 L 159.5 212 L 165.5 210 Z " /><path fill="rgb(255,255,255)" stroke="rgb(255,255,255)" stroke-width="1" opacity="0.48627450980392156" d="M 180.5 210 L 185 210.5 L 180.5 211 L 180.5 210 Z " /><path fill="rgb(255,255,255)" stroke="rgb(255,255,255)" stroke-width="1" opacity="0.48627450980392156" d="M 186.5 211 Q 201.3 214.3 209 224.5 L 203.5 231 L 197.5 236 L 188 228.5 L 189.5 229 L 197.5 235 L 208 225.5 L 202.5 219 L 191.5 213 L 186.5 212 L 186.5 211 Z " /><path fill="rgb(255,255,255)" stroke="rgb(255,255,255)" stroke-width="1" opacity="0.48627450980392156" d="M 264.5 212 L 272 213.5 L 269.5 214 L 264.5 213 L 264.5 212 Z " /><path fill="rgb(255,255,255)" stroke="rgb(255,255,255)" stroke-width="1" opacity="0.48627450980392156" d="M 321.5 212 L 322 268.5 L 324 273.5 L 323 273.5 L 321 268.5 L 321.5 212 Z " /><path fill="rgb(255,255,255)" stroke="rgb(255,255,255)" stroke-width="1" opacity="0.48627450980392156" d="M 366.5 212 L 367 266.5 L 366 266.5 L 366.5 212 Z " /><path fill="rgb(255,255,255)" stroke="rgb(255,255,255)" stroke-width="1" opacity="0.48627450980392156" d="M 382.5 212 L 383 270.5 L 382 270.5 L 382.5 212 Z " /><path fill="rgb(255,255,255)" stroke="rgb(255,255,255)" stroke-width="1" opacity="0.48627450980392156" d="M 156.5 213 L 158 213.5 Q 145.9 217.9 139 227.5 L 133.5 237 L 133 235.5 Q 138 225.5 146.5 219 L 156.5 213 Z " /><path fill="rgb(255,255,255)" stroke="rgb(255,255,255)" stroke-width="1" opacity="0.48627450980392156" d="M 273.5 214 Q 282.8 217.2 288 224.5 L 290 228.5 L 288 227.5 Q 286.6 221.4 281.5 219 L 273.5 215 L 273.5 214 Z " /><path fill="rgb(255,255,255)" stroke="rgb(255,255,255)" stroke-width="1" opacity="0.48627450980392156" d="M 170.5 225 L 181 225.5 L 170.5 226 L 170.5 225 Z " /><path fill="rgb(255,255,255)" stroke="rgb(255,255,255)" stroke-width="1" opacity="0.48627450980392156" d="M 182.5 226 L 187 227.5 L 185.5 228 L 182.5 227 L 182.5 226 Z " /><path fill="rgb(255,255,255)" stroke="rgb(255,255,255)" stroke-width="1" opacity="0.48627450980392156" d="M 238.5 226 L 257 226.5 L 238 227 L 238 255 L 261.5 255 L 261.5 256 L 237 256 L 237 227.5 L 238.5 226 Z " /><path fill="rgb(255,255,255)" stroke="rgb(255,255,255)" stroke-width="1" opacity="0.48627450980392156" d="M 164.5 227 L 166 227.5 Q 157.8 230.3 153 236.5 L 149.5 242 L 150 240.5 L 157.5 231 L 164.5 227 Z " /><path fill="rgb(255,255,255)" stroke="rgb(255,255,255)" stroke-width="1" opacity="0.48627450980392156" d="M 261.5 227 Q 270.6 227.4 274 233.5 L 269.5 230 L 261.5 228 L 261.5 227 Z " /><path fill="rgb(255,255,255)" stroke="rgb(255,255,255)" stroke-width="1" opacity="0.48627450980392156" d="M 291.5 233 L 292 235.5 L 291 235.5 L 291.5 233 Z " /><path fill="rgb(255,255,255)" stroke="rgb(255,255,255)" stroke-width="1" opacity="0.48627450980392156" d="M 275.5 237 L 276 245.5 L 273 251 L 268.5 254 L 263.5 255 L 263.5 254 Q 271.6 253.6 274 247.5 L 275.5 237 Z " /><path fill="rgb(255,255,255)" stroke="rgb(255,255,255)" stroke-width="1" opacity="0.48627450980392156" d="M 292.5 237 L 293 244.5 L 292 244.5 L 292.5 237 Z " /><path fill="rgb(255,255,255)" stroke="rgb(255,255,255)" stroke-width="1" opacity="0.48627450980392156" d="M 132.5 238 L 133 239.5 L 130.5 247 L 130 243.5 L 132.5 238 Z " /><path fill="rgb(255,255,255)" stroke="rgb(255,255,255)" stroke-width="1" opacity="0.48627450980392156" d="M 148.5 243 L 149 244.5 L 147.5 247 L 147 245.5 L 148.5 243 Z " /><path fill="rgb(255,255,255)" stroke="rgb(255,255,255)" stroke-width="1" opacity="0.48627450980392156" d="M 291.5 246 L 292 249.5 Q 289.8 257.3 284.5 262 L 274.5 268 L 274.5 267 Q 283.3 263.8 288 256.5 L 291.5 246 Z " /><path fill="rgb(255,255,255)" stroke="rgb(255,255,255)" stroke-width="1" opacity="0.48627450980392156" d="M 129.5 248 L 130 262.5 L 129 262.5 L 129.5 248 Z " /><path fill="rgb(255,255,255)" stroke="rgb(255,255,255)" stroke-width="1" opacity="0.48627450980392156" d="M 146.5 248 L 147 251.5 L 146 251.5 L 146.5 248 Z " /><path fill="rgb(255,255,255)" stroke="rgb(255,255,255)" stroke-width="1" opacity="0.48627450980392156" d="M 22.5 249 L 24 249.5 L 20 252.5 L 19.5 254 L 19 252.5 L 22.5 249 Z " /><path fill="rgb(255,255,255)" stroke="rgb(255,255,255)" stroke-width="1" opacity="0.48627450980392156" d="M 488.5 249 L 493 252.5 L 492.5 254 L 489.5 250 L 488.5 249 Z " /><path fill="rgb(255,255,255)" stroke="rgb(255,255,255)" stroke-width="1" opacity="0.48627450980392156" d="M 145.5 254 L 146 257.5 L 145 257.5 L 145.5 254 Z " /><path fill="rgb(255,255,255)" stroke="rgb(255,255,255)" stroke-width="1" opacity="0.48627450980392156" d="M 19.5 258 L 22.5 262 L 24 262.5 L 22.5 263 L 19 259.5 L 19.5 258 Z " /><path fill="rgb(255,255,255)" stroke="rgb(255,255,255)" stroke-width="1" opacity="0.48627450980392156" d="M 492.5 258 L 493 259.5 L 488.5 263 L 488.5 262 L 492 259.5 L 492.5 258 Z " /><path fill="rgb(255,255,255)" stroke="rgb(255,255,255)" stroke-width="1" opacity="0.48627450980392156" d="M 146.5 260 L 147 263.5 L 146 263.5 L 146.5 260 Z " /><path fill="rgb(255,255,255)" stroke="rgb(255,255,255)" stroke-width="1" opacity="0.48627450980392156" d="M 54.5 263 L 55 317 L 24.5 317 L 20 320.5 L 19.5 322 L 19 320.5 L 24.5 316 L 54 316 L 54.5 263 Z " /><path fill="rgb(255,255,255)" stroke="rgb(255,255,255)" stroke-width="1" opacity="0.48627450980392156" d="M 457.5 263 L 458 316 L 487.5 316 L 493 320.5 L 492.5 322 L 489.5 318 L 487.5 317 L 457 317 L 457.5 263 Z " /><path fill="rgb(255,255,255)" stroke="rgb(255,255,255)" stroke-width="1" opacity="0.48627450980392156" d="M 130.5 264 L 131 267.5 L 130 267.5 L 130.5 264 Z " /><path fill="rgb(255,255,255)" stroke="rgb(255,255,255)" stroke-width="1" opacity="0.48627450980392156" d="M 147.5 265 L 149 268.5 L 148 268.5 L 147.5 265 Z " /><path fill="rgb(255,255,255)" stroke="rgb(255,255,255)" stroke-width="1" opacity="0.48627450980392156" d="M 305.5 268 L 306 272.5 L 305 272.5 L 305.5 268 Z " /><path fill="rgb(255,255,255)" stroke="rgb(255,255,255)" stroke-width="1" opacity="0.48627450980392156" d="M 365.5 268 L 366 270.5 L 365 270.5 L 365.5 268 Z " /><path fill="rgb(255,255,255)" stroke="rgb(255,255,255)" stroke-width="1" opacity="0.48627450980392156" d="M 267.5 269 L 270 269.5 L 267.5 270 L 267.5 269 Z " /><path fill="rgb(255,255,255)" stroke="rgb(255,255,255)" stroke-width="1" opacity="0.48627450980392156" d="M 149.5 270 L 156.5 279 L 166 284.5 L 164.5 285 Q 156.8 281.8 152 275.5 L 149.5 270 Z " /><path fill="rgb(255,255,255)" stroke="rgb(255,255,255)" stroke-width="1" opacity="0.48627450980392156" d="M 237 270 L 265 270.5 L 238 271 L 237.5 300 L 237 270 Z " /><path fill="rgb(255,255,255)" stroke="rgb(255,255,255)" stroke-width="1" opacity="0.48627450980392156" d="M 132.5 272 L 142 288 L 151.5 295 L 167 300.5 L 163.5 301 Q 148.7 296.8 140 286.5 Q 134.1 280.4 132.5 272 Z " /><path fill="rgb(255,255,255)" stroke="rgb(255,255,255)" stroke-width="1" opacity="0.48627450980392156" d="M 364.5 272 L 365 273.5 L 356.5 284 L 349.5 287 L 345.5 287 L 345.5 286 L 352.5 285 L 361 278.5 L 364.5 272 Z " /><path fill="rgb(255,255,255)" stroke="rgb(255,255,255)" stroke-width="1" opacity="0.48627450980392156" d="M 381.5 272 L 382 274.5 L 381 274.5 L 381.5 272 Z " /><path fill="rgb(255,255,255)" stroke="rgb(255,255,255)" stroke-width="1" opacity="0.48627450980392156" d="M 306.5 274 Q 309.9 286.1 318.5 293 L 328 298.5 L 326.5 299 Q 317.8 294.8 312 287.5 L 306 276.5 L 306.5 274 Z " /><path fill="rgb(255,255,255)" stroke="rgb(255,255,255)" stroke-width="1" opacity="0.48627450980392156" d="M 324.5 275 L 331.5 283 L 337 285.5 L 335.5 286 L 325 277.5 L 324.5 275 Z " /><path fill="rgb(255,255,255)" stroke="rgb(255,255,255)" stroke-width="1" opacity="0.48627450980392156" d="M 197.5 276 L 209 286.5 L 203.5 293 L 194.5 298 L 194.5 297 Q 202.9 293.9 208 287.5 L 204.5 283 L 197.5 277 L 188.5 284 L 189.5 282 L 197.5 276 Z " /><path fill="rgb(255,255,255)" stroke="rgb(255,255,255)" stroke-width="1" opacity="0.48627450980392156" d="M 379.5 279 L 380 280.5 L 369.5 294 L 362.5 298 L 362.5 297 L 372 291 L 379.5 279 Z " /><path fill="rgb(255,255,255)" stroke="rgb(255,255,255)" stroke-width="1" opacity="0.48627450980392156" d="M 185.5 284 L 187 284.5 L 182.5 286 L 182.5 285 L 185.5 284 Z " /><path fill="rgb(255,255,255)" stroke="rgb(255,255,255)" stroke-width="1" opacity="0.48627450980392156" d="M 167.5 285 L 181 286.5 L 170.5 287 L 167.5 286 L 167.5 285 Z " /><path fill="rgb(255,255,255)" stroke="rgb(255,255,255)" stroke-width="1" opacity="0.48627450980392156" d="M 338.5 286 L 343 286.5 L 338.5 287 L 338.5 286 Z " /><path fill="rgb(255,255,255)" stroke="rgb(255,255,255)" stroke-width="1" opacity="0.48627450980392156" d="M 191.5 298 L 193 298.5 L 188.5 300 L 188.5 299 L 191.5 298 Z " /><path fill="rgb(255,255,255)" stroke="rgb(255,255,255)" stroke-width="1" opacity="0.48627450980392156" d="M 359.5 298 L 361 298.5 L 357.5 300 L 357.5 299 L 359.5 298 Z " /><path fill="rgb(255,255,255)" stroke="rgb(255,255,255)" stroke-width="1" opacity="0.48627450980392156" d="M 329.5 299 L 335 300.5 L 331.5 301 L 329.5 299 Z " /><path fill="rgb(255,255,255)" stroke="rgb(255,255,255)" stroke-width="1" opacity="0.48627450980392156" d="M 183.5 300 L 187 300.5 L 183.5 301 L 183.5 300 Z " /><path fill="rgb(255,255,255)" stroke="rgb(255,255,255)" stroke-width="1" opacity="0.48627450980392156" d="M 353.5 300 L 356 300.5 L 353.5 301 L 353.5 300 Z " /><path fill="rgb(255,255,255)" stroke="rgb(255,255,255)" stroke-width="1" opacity="0.48627450980392156" d="M 168.5 301 L 182 301.5 L 168.5 302 L 168.5 301 Z " /><path fill="rgb(255,255,255)" stroke="rgb(255,255,255)" stroke-width="1" opacity="0.48627450980392156" d="M 336.5 301 L 352 301.5 L 336.5 302 L 336.5 301 Z " /><path fill="rgb(255,255,255)" stroke="rgb(255,255,255)" stroke-width="1" opacity="0.48627450980392156" d="M 19.5 326 L 22.5 330 L 25 330.5 L 22.5 331 L 19 327.5 L 19.5 326 Z " /><path fill="rgb(255,255,255)" stroke="rgb(255,255,255)" stroke-width="1" opacity="0.48627450980392156" d="M 492.5 326 L 493 327.5 Q 492.5 331.5 487.5 331 L 487.5 330 Q 491.5 330.5 492 327.5 L 492.5 326 Z " /><path fill="rgb(255,255,255)" stroke="rgb(255,255,255)" stroke-width="1" opacity="0.48627450980392156" d="M 54.5 331 L 55 385 L 24 384.5 L 54 384 L 54.5 331 Z " /><path fill="rgb(255,255,255)" stroke="rgb(255,255,255)" stroke-width="1" opacity="0.48627450980392156" d="M 457.5 331 L 458 384 L 488 384.5 L 457 385 L 457.5 331 Z " /><path fill="rgb(255,255,255)" stroke="rgb(255,255,255)" stroke-width="1" opacity="0.48627450980392156" d="M 95.5 371 Q 102.4 370.1 104 374.5 L 105 376.5 L 105 407 L 135.5 407 L 140 410.5 L 141 416.5 L 136.5 422 L 94.5 422 L 90 417.5 L 90 375.5 L 93.5 372 L 91 375.5 L 91 417.5 L 94.5 421 L 136.5 421 L 139 418.5 L 140 412.5 L 137.5 409 L 135.5 408 L 104 408 L 104 376.5 L 101.5 373 L 95.5 372 L 95.5 371 Z " /><path fill="rgb(255,255,255)" stroke="rgb(255,255,255)" stroke-width="1" opacity="0.48627450980392156" d="M 412.5 371 Q 420.4 370.1 422 375.5 L 422 417.5 L 417.5 422 L 375.5 422 L 372 418.5 L 371 412.5 L 374.5 408 L 376.5 407 L 407 407 L 407 376.5 L 410.5 372 L 412.5 371 Z M 413 372 L 411 373 L 408 377 L 408 408 L 377 408 L 375 409 L 372 413 L 373 419 L 376 421 L 418 421 L 421 418 L 421 376 Q 419 371 413 372 Z " /><path fill="rgb(255,255,255)" stroke="rgb(255,255,255)" stroke-width="1" opacity="0.48627450980392156" d="M 21.5 385 L 23 385.5 L 19.5 390 L 19 388.5 L 21.5 385 Z " /><path fill="rgb(255,255,255)" stroke="rgb(255,255,255)" stroke-width="1" opacity="0.48627450980392156" d="M 489.5 385 L 492 386.5 L 493 389.5 L 492 389.5 L 489.5 385 Z " /><path fill="rgb(255,255,255)" stroke="rgb(255,255,255)" stroke-width="1" opacity="0.48627450980392156" d="M 19.5 393 L 21.5 397 L 23.5 398 L 53.5 398 L 55 399.5 L 55 453.5 L 58.5 457 L 112.5 457 L 114 458.5 L 114 488.5 L 116.5 492 L 119 492.5 L 116.5 493 L 113 488.5 L 113 458 L 58.5 458 L 54 453.5 L 54 399 L 23.5 399 L 19 395.5 L 19.5 393 Z " /><path fill="rgb(255,255,255)" stroke="rgb(255,255,255)" stroke-width="1" opacity="0.48627450980392156" d="M 492.5 393 L 493 395.5 L 488.5 399 L 458 399 L 458 453.5 L 453.5 458 L 399 458 L 399 488.5 L 395.5 493 L 393 492.5 L 397 490.5 L 398 488.5 L 398 458.5 L 399.5 457 L 453.5 457 L 457 453.5 L 457 399.5 L 458.5 398 L 488.5 398 L 492 395.5 L 492.5 393 Z " /><path fill="rgb(255,255,255)" stroke="rgb(255,255,255)" stroke-width="1" opacity="0.48627450980392156" d="M 127 457 L 181 457.5 L 128 458 L 127.5 488 L 127 457 Z " /><path fill="rgb(255,255,255)" stroke="rgb(255,255,255)" stroke-width="1" opacity="0.48627450980392156" d="M 195 457 L 249 457.5 L 196 458 L 196 487.5 L 191.5 493 L 190 492.5 L 194 489.5 L 195 487.5 L 195 457 Z " /><path fill="rgb(255,255,255)" stroke="rgb(255,255,255)" stroke-width="1" opacity="0.48627450980392156" d="M 263.5 457 L 317 457 L 317 487.5 L 320.5 492 L 322 492.5 L 320.5 493 L 316 487.5 L 316 458 L 263.5 458 L 263.5 457 Z " /><path fill="rgb(255,255,255)" stroke="rgb(255,255,255)" stroke-width="1" opacity="0.48627450980392156" d="M 331.5 457 L 385 457 L 385 487.5 L 384 487.5 L 384 458 L 331.5 458 L 331.5 457 Z " /><path fill="rgb(255,255,255)" stroke="rgb(255,255,255)" stroke-width="1" opacity="0.48627450980392156" d="M 181.5 487 L 184.5 492 L 186 492.5 L 184.5 493 Q 179.7 491.7 181.5 487 Z " /><path fill="rgb(255,255,255)" stroke="rgb(255,255,255)" stroke-width="1" opacity="0.48627450980392156" d="M 330.5 487 L 331 489.5 L 326.5 493 L 326.5 492 L 330 489.5 L 330.5 487 Z " /><path fill="rgb(255,255,255)" stroke="rgb(255,255,255)" stroke-width="1" opacity="0.48627450980392156" d="M 249.5 488 L 252.5 492 L 254 492.5 L 252.5 493 L 249 489.5 L 249.5 488 Z " /><path fill="rgb(255,255,255)" stroke="rgb(255,255,255)" stroke-width="1" opacity="0.48627450980392156" d="M 262.5 488 L 263 489.5 L 258.5 493 L 258.5 492 L 262 489.5 L 262.5 488 Z " /><path fill="rgb(255,255,255)" stroke="rgb(255,255,255)" stroke-width="1" opacity="0.48627450980392156" d="M 126.5 489 L 126 490.5 Q 126.8 492.8 124.5 492 L 122.5 493 L 122.5 492 L 126.5 489 Z " /><path fill="rgb(255,255,255)" stroke="rgb(255,255,255)" stroke-width="1" opacity="0.48627450980392156" d="M 385.5 489 L 390 492.5 L 388.5 493 L 385 490.5 L 385.5 489 Z " /><path fill="rgb(255,255,255)" stroke="rgb(255,255,255)" stroke-width="1" opacity="0.996078431372549" d="M 119.5 19 L 122 19.5 L 119.5 20 L 119.5 19 Z " /><path fill="rgb(255,255,255)" stroke="rgb(255,255,255)" stroke-width="1" opacity="0.996078431372549" d="M 186.5 19 L 190 19.5 L 186.5 20 L 186.5 19 Z " /><path fill="rgb(255,255,255)" stroke="rgb(255,255,255)" stroke-width="1" opacity="0.996078431372549" d="M 254.5 19 L 258 19.5 L 254.5 20 L 254.5 19 Z " /><path fill="rgb(255,255,255)" stroke="rgb(255,255,255)" stroke-width="1" opacity="0.996078431372549" d="M 322.5 19 L 326 19.5 L 322.5 20 L 322.5 19 Z " /><path fill="rgb(255,255,255)" stroke="rgb(255,255,255)" stroke-width="1" opacity="0.996078431372549" d="M 390.5 19 L 393 19.5 L 390.5 20 L 390.5 19 Z " /><path fill="rgb(255,255,255)" stroke="rgb(255,255,255)" stroke-width="1" opacity="0.996078431372549" d="M 116.5 20 L 115.5 22 L 116.5 20 Z " /><path fill="rgb(255,255,255)" stroke="rgb(255,255,255)" stroke-width="1" opacity="0.996078431372549" d="M 184.5 20 L 182.5 23 L 184.5 20 Z " /><path fill="rgb(255,255,255)" stroke="rgb(255,255,255)" stroke-width="1" opacity="0.996078431372549" d="M 252.5 20 L 250.5 23 L 252.5 20 Z " /><path fill="rgb(255,255,255)" stroke="rgb(255,255,255)" stroke-width="1" opacity="0.996078431372549" d="M 259.5 20 L 261.5 23 L 259.5 20 Z " /><path fill="rgb(255,255,255)" stroke="rgb(255,255,255)" stroke-width="1" opacity="0.996078431372549" d="M 327.5 20 L 329.5 23 L 327.5 20 Z " /><path fill="rgb(255,255,255)" stroke="rgb(255,255,255)" stroke-width="1" opacity="0.996078431372549" d="M 395.5 20 L 396.5 22 L 395.5 20 Z " /><path fill="rgb(255,255,255)" stroke="rgb(255,255,255)" stroke-width="1" opacity="0.996078431372549" d="M 181.5 25 L 182 54.5 L 181 54.5 L 181.5 25 Z " /><path fill="rgb(255,255,255)" stroke="rgb(255,255,255)" stroke-width="1" opacity="0.996078431372549" d="M 330.5 25 L 331 54.5 L 330 54.5 L 330.5 25 Z " /><path fill="rgb(255,255,255)" stroke="rgb(255,255,255)" stroke-width="1" opacity="0.996078431372549" d="M 136.5 91 L 138.5 94 L 136.5 91 Z " /><path fill="rgb(255,255,255)" stroke="rgb(255,255,255)" stroke-width="1" opacity="0.996078431372549" d="M 375.5 91 L 373 94.5 L 372.5 96 L 372 94.5 L 375.5 91 Z " /><path fill="rgb(255,255,255)" stroke="rgb(255,255,255)" stroke-width="1" opacity="0.996078431372549" d="M 138.5 101 L 137.5 103 L 138.5 101 Z " /><path fill="rgb(255,255,255)" stroke="rgb(255,255,255)" stroke-width="1" opacity="0.996078431372549" d="M 373.5 101 L 374.5 103 L 373.5 101 Z " /><path fill="rgb(255,255,255)" stroke="rgb(255,255,255)" stroke-width="1" opacity="0.996078431372549" d="M 21.5 115 L 20.5 117 L 21.5 115 Z " /><path fill="rgb(255,255,255)" stroke="rgb(255,255,255)" stroke-width="1" opacity="0.996078431372549" d="M 490.5 115 L 491.5 117 L 490.5 115 Z " /><path fill="rgb(255,255,255)" stroke="rgb(255,255,255)" stroke-width="1" opacity="0.996078431372549" d="M 19.5 119 L 20 121.5 L 19 121.5 L 19.5 119 Z " /><path fill="rgb(255,255,255)" stroke="rgb(255,255,255)" stroke-width="1" opacity="0.996078431372549" d="M 492.5 119 L 493 121.5 L 492 121.5 L 492.5 119 Z " /><path fill="rgb(255,255,255)" stroke="rgb(255,255,255)" stroke-width="1" opacity="0.996078431372549" d="M 91.5 136 L 93.5 139 L 91.5 136 Z " /><path fill="rgb(255,255,255)" stroke="rgb(255,255,255)" stroke-width="1" opacity="0.996078431372549" d="M 420.5 136 L 418.5 139 L 420.5 136 Z " /><path fill="rgb(255,255,255)" stroke="rgb(255,255,255)" stroke-width="1" opacity="0.996078431372549" d="M 102.5 137 L 101.5 139 L 102.5 137 Z " /><path fill="rgb(255,255,255)" stroke="rgb(255,255,255)" stroke-width="1" opacity="0.996078431372549" d="M 409.5 137 L 410.5 139 L 409.5 137 Z " /><path fill="rgb(255,255,255)" stroke="rgb(255,255,255)" stroke-width="1" opacity="0.996078431372549" d="M 25.5 181 L 55 181.5 L 25.5 182 L 25.5 181 Z " /><path fill="rgb(255,255,255)" stroke="rgb(255,255,255)" stroke-width="1" opacity="0.996078431372549" d="M 457.5 181 L 487 181.5 L 457.5 182 L 457.5 181 Z " /><path fill="rgb(255,255,255)" stroke="rgb(255,255,255)" stroke-width="1" opacity="0.996078431372549" d="M 22.5 182 L 20.5 185 L 22.5 182 Z " /><path fill="rgb(255,255,255)" stroke="rgb(255,255,255)" stroke-width="1" opacity="0.996078431372549" d="M 489.5 182 L 491.5 185 L 489.5 182 Z " /><path fill="rgb(255,255,255)" stroke="rgb(255,255,255)" stroke-width="1" opacity="0.996078431372549" d="M 19.5 186 L 20 189.5 L 19 189.5 L 19.5 186 Z " /><path fill="rgb(255,255,255)" stroke="rgb(255,255,255)" stroke-width="1" opacity="0.996078431372549" d="M 492.5 186 L 493 189.5 L 492 189.5 L 492.5 186 Z " /><path fill="rgb(255,255,255)" stroke="rgb(255,255,255)" stroke-width="1" opacity="0.996078431372549" d="M 170.5 210 L 175 210.5 L 170.5 211 L 170.5 210 Z " /><path fill="rgb(255,255,255)" stroke="rgb(255,255,255)" stroke-width="1" opacity="0.996078431372549" d="M 176.5 210 L 180 210.5 L 176.5 211 L 176.5 210 Z " /><path fill="rgb(255,255,255)" stroke="rgb(255,255,255)" stroke-width="1" opacity="0.996078431372549" d="M 221.5 212 L 222 299 L 237 299.5 L 221 300 L 221.5 212 Z " /><path fill="rgb(255,255,255)" stroke="rgb(255,255,255)" stroke-width="1" opacity="0.996078431372549" d="M 260.5 212 L 264 212.5 L 260.5 213 L 260.5 212 Z " /><path fill="rgb(255,255,255)" stroke="rgb(255,255,255)" stroke-width="1" opacity="0.996078431372549" d="M 305 212 L 321 212.5 L 306 213 L 305.5 268 L 305 212 Z " /><path fill="rgb(255,255,255)" stroke="rgb(255,255,255)" stroke-width="1" opacity="0.996078431372549" d="M 367.5 212 L 382 212.5 L 367.5 213 L 367.5 212 Z " /><path fill="rgb(255,255,255)" stroke="rgb(255,255,255)" stroke-width="1" opacity="0.996078431372549" d="M 150.5 217 L 149.5 219 L 150.5 217 Z " /><path fill="rgb(255,255,255)" stroke="rgb(255,255,255)" stroke-width="1" opacity="0.996078431372549" d="M 202.5 219 L 204.5 222 L 202.5 219 Z " /><path fill="rgb(255,255,255)" stroke="rgb(255,255,255)" stroke-width="1" opacity="0.996078431372549" d="M 281.5 219 L 286.5 225 L 281.5 219 Z " /><path fill="rgb(255,255,255)" stroke="rgb(255,255,255)" stroke-width="1" opacity="0.996078431372549" d="M 146.5 220 L 139.5 228 L 146.5 220 Z " /><path fill="rgb(255,255,255)" stroke="rgb(255,255,255)" stroke-width="1" opacity="0.996078431372549" d="M 207.5 225 L 206.5 227 L 207.5 225 Z " /><path fill="rgb(255,255,255)" stroke="rgb(255,255,255)" stroke-width="1" opacity="0.996078431372549" d="M 257.5 226 L 261 226.5 L 257.5 227 L 257.5 226 Z " /><path fill="rgb(255,255,255)" stroke="rgb(255,255,255)" stroke-width="1" opacity="0.996078431372549" d="M 138.5 229 L 137.5 231 L 138.5 229 Z " /><path fill="rgb(255,255,255)" stroke="rgb(255,255,255)" stroke-width="1" opacity="0.996078431372549" d="M 159.5 229 L 158.5 231 L 159.5 229 Z " /><path fill="rgb(255,255,255)" stroke="rgb(255,255,255)" stroke-width="1" opacity="0.996078431372549" d="M 191.5 229 L 192.5 231 L 191.5 229 Z " /><path fill="rgb(255,255,255)" stroke="rgb(255,255,255)" stroke-width="1" opacity="0.996078431372549" d="M 271.5 230 L 273.5 233 L 271.5 230 Z " /><path fill="rgb(255,255,255)" stroke="rgb(255,255,255)" stroke-width="1" opacity="0.996078431372549" d="M 200.5 231 L 197.5 235 L 195.5 232 Q 198 236.5 200.5 231 Z " /><path fill="rgb(255,255,255)" stroke="rgb(255,255,255)" stroke-width="1" opacity="0.996078431372549" d="M 136.5 232 L 135.5 234 L 136.5 232 Z " /><path fill="rgb(255,255,255)" stroke="rgb(255,255,255)" stroke-width="1" opacity="0.996078431372549" d="M 154.5 233 L 153.5 235 L 154.5 233 Z " /><path fill="rgb(255,255,255)" stroke="rgb(255,255,255)" stroke-width="1" opacity="0.996078431372549" d="M 151.5 237 L 150.5 239 L 151.5 237 Z " /><path fill="rgb(255,255,255)" stroke="rgb(255,255,255)" stroke-width="1" opacity="0.996078431372549" d="M 274.5 248 L 273.5 250 L 274.5 248 Z " /><path fill="rgb(255,255,255)" stroke="rgb(255,255,255)" stroke-width="1" opacity="0.996078431372549" d="M 22.5 250 L 20.5 253 L 22.5 250 Z " /><path fill="rgb(255,255,255)" stroke="rgb(255,255,255)" stroke-width="1" opacity="0.996078431372549" d="M 489.5 250 L 491.5 253 L 489.5 250 Z " /><path fill="rgb(255,255,255)" stroke="rgb(255,255,255)" stroke-width="1" opacity="0.996078431372549" d="M 145.5 251 L 146 253.5 L 145 253.5 L 145.5 251 Z " /><path fill="rgb(255,255,255)" stroke="rgb(255,255,255)" stroke-width="1" opacity="0.996078431372549" d="M 271.5 251 L 270.5 253 L 271.5 251 Z " /><path fill="rgb(255,255,255)" stroke="rgb(255,255,255)" stroke-width="1" opacity="0.996078431372549" d="M 19.5 254 L 20 257.5 L 19 257.5 L 19.5 254 Z " /><path fill="rgb(255,255,255)" stroke="rgb(255,255,255)" stroke-width="1" opacity="0.996078431372549" d="M 492.5 254 L 493 257.5 L 492 257.5 L 492.5 254 Z " /><path fill="rgb(255,255,255)" stroke="rgb(255,255,255)" stroke-width="1" opacity="0.996078431372549" d="M 287.5 256 L 285.5 259 L 287.5 256 Z " /><path fill="rgb(255,255,255)" stroke="rgb(255,255,255)" stroke-width="1" opacity="0.996078431372549" d="M 145.5 258 L 146 260.5 L 145 260.5 L 145.5 258 Z " /><path fill="rgb(255,255,255)" stroke="rgb(255,255,255)" stroke-width="1" opacity="0.996078431372549" d="M 20.5 259 L 22.5 262 L 20.5 259 Z " /><path fill="rgb(255,255,255)" stroke="rgb(255,255,255)" stroke-width="1" opacity="0.996078431372549" d="M 491.5 259 L 489.5 262 L 491.5 259 Z " /><path fill="rgb(255,255,255)" stroke="rgb(255,255,255)" stroke-width="1" opacity="0.996078431372549" d="M 281.5 262 L 280.5 264 L 281.5 262 Z " /><path fill="rgb(255,255,255)" stroke="rgb(255,255,255)" stroke-width="1" opacity="0.996078431372549" d="M 150.5 273 L 151.5 275 L 150.5 273 Z " /><path fill="rgb(255,255,255)" stroke="rgb(255,255,255)" stroke-width="1" opacity="0.996078431372549" d="M 363.5 276 L 362.5 278 L 363.5 276 Z " /><path fill="rgb(255,255,255)" stroke="rgb(255,255,255)" stroke-width="1" opacity="0.996078431372549" d="M 153.5 277 L 154.5 279 L 153.5 277 Z " /><path fill="rgb(255,255,255)" stroke="rgb(255,255,255)" stroke-width="1" opacity="0.996078431372549" d="M 197.5 277 L 198.5 279 L 197.5 278 L 195 279.5 L 197.5 277 Z " /><path fill="rgb(255,255,255)" stroke="rgb(255,255,255)" stroke-width="1" opacity="0.996078431372549" d="M 325.5 278 L 330.5 284 L 325.5 278 Z " /><path fill="rgb(255,255,255)" stroke="rgb(255,255,255)" stroke-width="1" opacity="0.996078431372549" d="M 361.5 279 L 358.5 283 L 361.5 279 Z " /><path fill="rgb(255,255,255)" stroke="rgb(255,255,255)" stroke-width="1" opacity="0.996078431372549" d="M 158.5 281 L 159.5 283 L 158.5 281 Z " /><path fill="rgb(255,255,255)" stroke="rgb(255,255,255)" stroke-width="1" opacity="0.996078431372549" d="M 138.5 282 L 139.5 284 L 138.5 282 Z " /><path fill="rgb(255,255,255)" stroke="rgb(255,255,255)" stroke-width="1" opacity="0.996078431372549" d="M 204.5 283 L 208 287.5 L 203 291.5 L 207 286.5 L 204.5 283 Z " /><path fill="rgb(255,255,255)" stroke="rgb(255,255,255)" stroke-width="1" opacity="0.996078431372549" d="M 311.5 284 L 312.5 286 L 311.5 284 Z " /><path fill="rgb(255,255,255)" stroke="rgb(255,255,255)" stroke-width="1" opacity="0.996078431372549" d="M 375.5 285 L 374.5 287 L 375.5 285 Z " /><path fill="rgb(255,255,255)" stroke="rgb(255,255,255)" stroke-width="1" opacity="0.996078431372549" d="M 313.5 287 L 318.5 293 L 313.5 287 Z " /><path fill="rgb(255,255,255)" stroke="rgb(255,255,255)" stroke-width="1" opacity="0.996078431372549" d="M 147.5 291 L 148.5 293 L 147.5 291 Z " /><path fill="rgb(255,255,255)" stroke="rgb(255,255,255)" stroke-width="1" opacity="0.996078431372549" d="M 367.5 293 L 366.5 295 L 367.5 293 Z " /><path fill="rgb(255,255,255)" stroke="rgb(255,255,255)" stroke-width="1" opacity="0.996078431372549" d="M 198.5 294 L 197.5 296 L 198.5 294 Z " /><path fill="rgb(255,255,255)" stroke="rgb(255,255,255)" stroke-width="1" opacity="0.996078431372549" d="M 321.5 294 L 322.5 296 L 321.5 294 Z " /><path fill="rgb(255,255,255)" stroke="rgb(255,255,255)" stroke-width="1" opacity="0.996078431372549" d="M 364.5 295 L 363.5 297 L 364.5 295 Z " /><path fill="rgb(255,255,255)" stroke="rgb(255,255,255)" stroke-width="1" opacity="0.996078431372549" d="M 19.5 322 L 20 325.5 L 19 325.5 L 19.5 322 Z " /><path fill="rgb(255,255,255)" stroke="rgb(255,255,255)" stroke-width="1" opacity="0.996078431372549" d="M 492.5 322 L 493 325.5 L 492 325.5 L 492.5 322 Z " /><path fill="rgb(255,255,255)" stroke="rgb(255,255,255)" stroke-width="1" opacity="0.996078431372549" d="M 20.5 327 L 22.5 330 L 20.5 327 Z " /><path fill="rgb(255,255,255)" stroke="rgb(255,255,255)" stroke-width="1" opacity="0.996078431372549" d="M 491.5 327 L 489.5 330 L 491.5 327 Z " /><path fill="rgb(255,255,255)" stroke="rgb(255,255,255)" stroke-width="1" opacity="0.996078431372549" d="M 25.5 330 L 55 330.5 L 25.5 331 L 25.5 330 Z " /><path fill="rgb(255,255,255)" stroke="rgb(255,255,255)" stroke-width="1" opacity="0.996078431372549" d="M 457.5 330 L 487 330.5 L 457.5 331 L 457.5 330 Z " /><path fill="rgb(255,255,255)" stroke="rgb(255,255,255)" stroke-width="1" opacity="0.996078431372549" d="M 94.5 372 L 96 372.5 L 91.5 376 L 94.5 372 Z " /><path fill="rgb(255,255,255)" stroke="rgb(255,255,255)" stroke-width="1" opacity="0.996078431372549" d="M 101.5 373 L 102.5 375 L 101.5 373 Z " /><path fill="rgb(255,255,255)" stroke="rgb(255,255,255)" stroke-width="1" opacity="0.996078431372549" d="M 410.5 373 L 409.5 375 L 410.5 373 Z " /><path fill="rgb(255,255,255)" stroke="rgb(255,255,255)" stroke-width="1" opacity="0.996078431372549" d="M 418.5 373 L 420.5 376 L 418.5 373 Z " /><path fill="rgb(255,255,255)" stroke="rgb(255,255,255)" stroke-width="1" opacity="0.996078431372549" d="M 19.5 390 L 20 392.5 L 19 392.5 L 19.5 390 Z " /><path fill="rgb(255,255,255)" stroke="rgb(255,255,255)" stroke-width="1" opacity="0.996078431372549" d="M 492.5 390 L 493 392.5 L 492 392.5 L 492.5 390 Z " /><path fill="rgb(255,255,255)" stroke="rgb(255,255,255)" stroke-width="1" opacity="0.996078431372549" d="M 20.5 395 L 21.5 397 L 20.5 395 Z " /><path fill="rgb(255,255,255)" stroke="rgb(255,255,255)" stroke-width="1" opacity="0.996078431372549" d="M 491.5 395 L 490.5 397 L 491.5 395 Z " /><path fill="rgb(255,255,255)" stroke="rgb(255,255,255)" stroke-width="1" opacity="0.996078431372549" d="M 137.5 409 L 138.5 411 L 137.5 409 Z " /><path fill="rgb(255,255,255)" stroke="rgb(255,255,255)" stroke-width="1" opacity="0.996078431372549" d="M 374.5 409 L 373.5 411 L 374.5 409 Z " /><path fill="rgb(255,255,255)" stroke="rgb(255,255,255)" stroke-width="1" opacity="0.996078431372549" d="M 138.5 418 L 136.5 421 L 138.5 418 Z " /><path fill="rgb(255,255,255)" stroke="rgb(255,255,255)" stroke-width="1" opacity="0.996078431372549" d="M 373.5 418 L 375.5 421 L 373.5 418 Z " /><path fill="rgb(255,255,255)" stroke="rgb(255,255,255)" stroke-width="1" opacity="0.996078431372549" d="M 181.5 457 L 182 486.5 L 181 486.5 L 181.5 457 Z " /><path fill="rgb(255,255,255)" stroke="rgb(255,255,255)" stroke-width="1" opacity="0.996078431372549" d="M 330.5 457 L 331 486.5 L 330 486.5 L 330.5 457 Z " /><path fill="rgb(255,255,255)" stroke="rgb(255,255,255)" stroke-width="1" opacity="0.996078431372549" d="M 182.5 489 L 184.5 492 L 182.5 489 Z " /><path fill="rgb(255,255,255)" stroke="rgb(255,255,255)" stroke-width="1" opacity="0.996078431372549" d="M 250.5 489 L 252.5 492 L 250.5 489 Z " /><path fill="rgb(255,255,255)" stroke="rgb(255,255,255)" stroke-width="1" opacity="0.996078431372549" d="M 261.5 489 L 259.5 492 L 261.5 489 Z " /><path fill="rgb(255,255,255)" stroke="rgb(255,255,255)" stroke-width="1" opacity="0.996078431372549" d="M 329.5 489 L 327.5 492 L 329.5 489 Z " /><path fill="rgb(255,255,255)" stroke="rgb(255,255,255)" stroke-width="1" opacity="0.996078431372549" d="M 115.5 490 L 116.5 492 L 115.5 490 Z " /><path fill="rgb(255,255,255)" stroke="rgb(255,255,255)" stroke-width="1" opacity="0.996078431372549" d="M 396.5 490 L 395.5 492 L 396.5 490 Z " /><path fill="rgb(255,255,255)" stroke="rgb(255,255,255)" stroke-width="1" opacity="0.996078431372549" d="M 119.5 492 L 122 492.5 L 119.5 493 L 119.5 492 Z " /><path fill="rgb(255,255,255)" stroke="rgb(255,255,255)" stroke-width="1" opacity="0.996078431372549" d="M 186.5 492 L 190 492.5 L 186.5 493 L 186.5 492 Z " /><path fill="rgb(255,255,255)" stroke="rgb(255,255,255)" stroke-width="1" opacity="0.996078431372549" d="M 254.5 492 L 258 492.5 L 254.5 493 L 254.5 492 Z " /><path fill="rgb(255,255,255)" stroke="rgb(255,255,255)" stroke-width="1" opacity="0.996078431372549" d="M 322.5 492 L 326 492.5 L 322.5 493 L 322.5 492 Z " /><path fill="rgb(255,255,255)" stroke="rgb(255,255,255)" stroke-width="1" opacity="0.996078431372549" d="M 390.5 492 L 393 492.5 L 390.5 493 L 390.5 492 Z " /><path fill="rgb(255,255,255)" stroke="rgb(255,255,255)" stroke-width="1" opacity="1" d="M 117.5 20 Q 124 19 126 22.5 L 127 24.5 L 127 55 L 182 55 L 182 23.5 Q 183.2 18.7 190.5 20 L 193 21 L 195 25.5 L 195 55 L 249 55 L 249 26.5 L 253.5 20 Q 260.8 18.8 262 23.5 L 263 26.5 L 263 55 L 317 55 L 317 25.5 L 319 21 Q 321.1 19.4 326.5 20 L 330 23.5 L 330 55 L 385 55 L 385 24.5 L 387.5 21 L 394.5 20 L 398 23.5 L 398 55 L 452.5 55 L 456 57.5 L 457 59.5 L 457 114 L 488.5 114 L 492 117.5 Q 493 124 489.5 126 L 487.5 127 L 457 127 L 457 182 L 488.5 182 Q 493.3 183.2 492 190.5 L 491 193 L 486.5 195 L 457 195 L 457 249 L 485.5 249 L 492 253.5 Q 493.3 260.8 488.5 262 L 485.5 263 L 457 263 L 457 317 L 486.5 317 L 491 319 Q 492.6 321.1 492 326.5 L 488.5 330 L 457 330 L 457 385 L 487.5 385 L 491 387.5 L 492 394.5 L 488.5 398 L 457 398 L 457 452.5 L 454.5 456 L 452.5 457 L 398 457 L 398 488.5 L 394.5 492 Q 388 493 386 489.5 L 385 487.5 L 385 457 L 330 457 L 330 488.5 Q 328.8 493.3 321.5 492 L 319 491 L 317 486.5 L 317 457 L 263 457 L 263 485.5 L 258.5 492 Q 251.3 493.3 250 488.5 L 249 485.5 L 249 457 L 195 457 L 195 486.5 L 193 491 Q 190.9 492.6 185.5 492 L 182 488.5 L 182 457 L 127 457 L 127 487.5 L 124.5 491 L 117.5 492 L 114 488.5 L 114 457 L 59.5 457 L 56 454.5 L 55 452.5 L 55 398 L 23.5 398 L 20 394.5 Q 19 388 22.5 386 L 24.5 385 L 55 385 L 55 330 L 23.5 330 Q 18.7 328.8 20 321.5 L 21 319 L 25.5 317 L 55 317 L 55 263 L 26.5 263 L 20 258.5 Q 18.8 251.3 23.5 250 L 26.5 249 L 55 249 L 55 195 L 25.5 195 L 21 193 Q 19.4 190.9 20 185.5 L 23.5 182 L 55 182 L 55 127 L 24.5 127 L 21 124.5 L 20 117.5 L 23.5 114 L 55 114 L 55 59.5 L 57.5 56 L 59.5 55 L 114 55 L 114 23.5 L 117.5 20 Z M 68 68 L 68 444 L 444 444 L 444 68 L 68 68 Z " /><path fill="rgb(255,255,255)" stroke="rgb(255,255,255)" stroke-width="1" opacity="1" d="M 95.5 91 L 135.5 91 L 139 94.5 L 140 98.5 L 136.5 103 L 134.5 104 L 104 104 L 104 134.5 L 100.5 139 L 96.5 140 L 91 135.5 L 91 95.5 L 93.5 92 L 95.5 91 Z " /><path fill="rgb(255,255,255)" stroke="rgb(255,255,255)" stroke-width="1" opacity="1" d="M 376.5 91 L 416.5 91 L 420 93.5 L 421 95.5 L 421 135.5 Q 419 139.5 413.5 140 L 409 136.5 L 408 134.5 L 408 104 L 377.5 104 L 373 100.5 L 372 96.5 L 376.5 91 Z " /><path fill="rgb(255,255,255)" stroke="rgb(255,255,255)" stroke-width="1" opacity="1" d="M 175.5 210 L 190.5 213 Q 201.1 216.9 208 224.5 L 197.5 234 Q 191.8 227.7 182.5 225 L 169.5 225 Q 159 227.5 153 234.5 Q 144.3 242.8 145 260.5 Q 147.3 272.2 154.5 279 Q 160.2 284.8 169.5 287 L 182.5 287 Q 191.8 284.3 197.5 278 L 207 286.5 L 201.5 293 Q 190.3 301.8 169.5 301 Q 150 297.5 140 284.5 L 132 270.5 L 130 262.5 L 130 249.5 Q 134 229 148.5 219 L 159.5 213 L 175.5 210 Z " /><path fill="rgb(255,255,255)" stroke="rgb(255,255,255)" stroke-width="1" opacity="1" d="M 222 212 L 259.5 212 Q 261.3 214.8 267.5 213 Q 280.5 216 287 225.5 Q 292.3 231.7 292 243.5 L 288 255.5 L 282.5 262 L 272.5 268 L 264.5 270 L 237 270 L 237 299 L 222 299 L 222 212 Z M 237 226 L 237 256 L 264 256 L 271 253 L 276 247 Q 278 237 274 233 L 269 228 L 261 226 L 237 226 Z " /><path fill="rgb(255,255,255)" stroke="rgb(255,255,255)" stroke-width="1" opacity="1" d="M 306 213 L 320.5 213 L 321 213.5 L 321 269.5 Q 323.4 279.1 330.5 284 L 343.5 288 L 353.5 286 L 362 279.5 L 367 268.5 L 367 213 L 381.5 213 L 382 213.5 L 382 270.5 Q 378.8 285.3 368.5 293 L 355.5 300 L 336.5 301 Q 321 297.5 313 286.5 Q 307.9 280.7 306 271.5 L 306 213 Z " /><path fill="rgb(255,255,255)" stroke="rgb(255,255,255)" stroke-width="1" opacity="1" d="M 96.5 372 Q 101.3 372.3 103 375.5 L 104 377.5 L 104 408 L 134.5 408 L 139 411.5 L 140 415.5 L 135.5 421 L 95.5 421 L 92 418.5 L 91 416.5 L 91 376.5 L 96.5 372 Z " /><path fill="rgb(255,255,255)" stroke="rgb(255,255,255)" stroke-width="1" opacity="1" d="M 413.5 372 Q 419.1 372.5 421 376.5 L 421 416.5 L 418.5 420 L 416.5 421 L 376.5 421 Q 372.4 419 372 413.5 L 375.5 409 L 377.5 408 L 408 408 L 408 377.5 L 411.5 373 L 413.5 372 Z " /></svg>